/vscmnt/brussel_pixiu_data/_data_brussel/112/vsc11236/PredSimResults/SUBJ10opt3D/expIG/worker_02.mot
version=1
nRows=11
nColumns=50
inDegrees=yes
endheader
                time	         pelvis_tilt	         pelvis_list	     pelvis_rotation	           pelvis_tx	           pelvis_ty	           pelvis_tz	       hip_flexion_r	     hip_adduction_r	      hip_rotation_r	        knee_angle_r	       ankle_angle_r	         mtp_angle_r	       hip_flexion_l	     hip_adduction_l	      hip_rotation_l	        knee_angle_l	       ankle_angle_l	         mtp_angle_l	    lumbar_extension	      lumbar_bending	     lumbar_rotation	 ercspn_r/activation	 intobl_r/activation	 extobl_r/activation	    abd_r/activation	    add_r/activation	hamstrings_r/activation	bifemsh_r/activation	glut_max_r/activation	iliopsoas_r/activation	rect_fem_r/activation	  vasti_r/activation	gastroc_r/activation	 soleus_r/activation	tib_ant_r/activation	 ercspn_l/activation	 intobl_l/activation	 extobl_l/activation	    abd_l/activation	    add_l/activation	hamstrings_l/activation	bifemsh_l/activation	glut_max_l/activation	iliopsoas_l/activation	rect_fem_l/activation	  vasti_l/activation	gastroc_l/activation	 soleus_l/activation	tib_ant_l/activation	
          1.43541567	         -0.19755483	         -2.75119092	          9.22567392	          1.00479097	          0.84416938	         -0.01935607	         22.60969031	          0.54447009	         -4.04112060	         -9.99056776	          1.18079997	          0.23956553	        -13.61868838	         -3.20897326	         -0.27062701	         -6.67360551	         11.65632658	         18.33714444	         -4.84569615	         -0.90060140	         -3.97540314	          0.11068574	          0.16692392	          0.01000133	          0.01000022	          0.15583277	          0.07336949	          0.11335147	          0.01219532	          0.07120690	          0.01000379	          0.01000047	          0.01535554	          0.01000397	          0.21644053	          0.05396065	          0.01000022	          0.01000042	          0.08397907	          0.01000096	          0.01001922	          0.17510515	          0.01000058	          0.21957160	          0.01000226	          0.01000029	          0.22913964	          0.22255337	          0.02028006	
          1.44976983	         -0.26906634	         -2.62625152	          8.88845279	          1.01712806	          0.84274837	         -0.01797349	         22.16820571	          0.75404453	         -3.75392643	        -10.58281978	          1.05327661	          0.23610466	        -13.83153995	         -3.14817200	         -1.12641930	         -7.86341323	         11.49721552	         19.64531305	         -4.57040532	         -0.53362350	         -4.36561685	          0.10145380	          0.17621485	          0.01000082	          0.01000024	          0.14652769	          0.06574864	          0.09147118	          0.01337382	          0.05746038	          0.01000109	          0.01000037	          0.01239157	          0.01000059	          0.24387412	          0.06258144	          0.01000014	          0.01000033	          0.06891245	          0.01000072	          0.01002080	          0.14130141	          0.01000059	          0.17718324	          0.01000253	          0.01000030	          0.21495128	          0.22392109	          0.01636505	
          1.46412399	         -0.33611439	         -2.51901478	          8.49217474	          1.02969985	          0.84157369	         -0.01648003	         21.71368131	          0.96726809	         -3.47304725	        -11.11659583	          0.77290264	          0.23247393	        -13.99051736	         -3.10849273	         -2.00861221	         -9.17927653	         11.19118518	         20.98487577	         -4.27727998	         -0.11425063	         -4.74810621	          0.09167679	          0.16255784	          0.01000078	          0.01000073	          0.13036869	          0.06694272	          0.07381345	          0.01114892	          0.04636764	          0.01000090	          0.02713519	          0.01000068	          0.01000040	          0.27656525	          0.06893642	          0.01000013	          0.01000037	          0.05561087	          0.01000092	          0.01009234	          0.11402334	          0.01000133	          0.14297794	          0.01000289	          0.01000062	          0.19638550	          0.22074269	          0.01320586	
          1.47847814	         -0.39871796	         -2.42971102	          8.03593408	          1.04240331	          0.84077013	         -0.01485929	         21.27089731	          1.19017173	         -3.26594114	        -11.65200886	          0.46485255	          0.22493022	        -14.04065039	         -3.09456394	         -2.90914511	        -10.70081210	         10.71350875	         22.34279914	         -3.97996317	          0.35201985	         -5.11975083	          0.08113682	          0.13117668	          0.01000071	          0.01025937	          0.10523749	          0.07313821	          0.05956459	          0.01084472	          0.03741635	          0.01000067	          0.05359599	          0.01000046	          0.01000029	          0.30287971	          0.07561615	          0.01000012	          0.01000042	          0.04487531	          0.01000107	          0.01484019	          0.09201128	          0.01092200	          0.11537598	          0.01000271	          0.01000111	          0.17549626	          0.21237160	          0.01065661	
          1.49283230	         -0.45668106	         -2.35349281	          7.52740290	          1.05518060	          0.84045015	         -0.01310823	         20.79222672	          1.41797595	         -3.14239844	        -12.14330344	          0.29171475	          0.21580631	        -13.93541161	         -3.10896572	         -3.83242824	        -12.49449684	         10.03659943	         23.68835994	         -3.68412028	          0.84893883	         -5.47596038	          0.08054120	          0.10585300	          0.01000066	          0.03028188	          0.10148787	          0.07529904	          0.04806651	          0.01001044	          0.03019312	          0.01000072	          0.06841204	          0.01000058	          0.01000035	          0.30670961	          0.08934337	          0.01000012	          0.01000042	          0.03621216	          0.01000119	          0.01400073	          0.07424865	          0.01679664	          0.09310260	          0.01000243	          0.01000178	          0.14253015	          0.19967316	          0.01000044	
          1.50718646	         -0.50947375	         -2.28169719	          6.97780944	          1.06796202	          0.84071134	         -0.01124973	         20.24963142	          1.64525686	         -3.06172762	        -12.56584433	          0.35506249	          0.22021084	        -13.64450916	         -3.15026954	         -4.80185070	        -14.59269937	          9.13989747	         24.94460299	         -3.39334303	          1.35934988	         -5.81458567	          0.07796535	          0.08541803	          0.01000071	          0.04572073	          0.08402003	          0.07692265	          0.03878815	          0.01231757	          0.02436435	          0.01000071	          0.07148297	          0.01000047	          0.01000027	          0.29195299	          0.10192638	          0.01000016	          0.01000042	          0.02922140	          0.01000382	          0.02399726	          0.05991511	          0.02442456	          0.07512912	          0.01000132	          0.01105053	          0.11501462	          0.18216726	          0.01000052	
          1.52154061	         -0.55683420	         -2.20371104	          6.39837866	          1.08066910	          0.84156577	         -0.00931240	         19.64855995	          1.86762615	         -2.96205395	        -12.92763193	          0.65650110	          0.27176175	        -13.16150146	         -3.21548942	         -5.83351304	        -16.98389963	          8.03225510	         25.98777884	         -3.11283106	          1.86694276	         -6.13668791	          0.07453514	          0.06892804	          0.01000078	          0.04987867	          0.09376509	          0.08142741	          0.03130096	          0.02266622	          0.01966083	          0.01000063	          0.07213867	          0.01000054	          0.01000032	          0.25973629	          0.10471531	          0.01000022	          0.01000044	          0.02358021	          0.05547093	          0.03753585	          0.04834869	          0.01971126	          0.06062543	          0.01000084	          0.01515091	          0.09281095	          0.16127954	          0.01000048	
          1.53589477	         -0.59907765	         -2.10336612	          5.79603273	          1.09323032	          0.84295656	         -0.00733030	         18.97998315	          2.07194473	         -2.79882219	        -13.19452671	          1.12394043	          0.38028033	        -12.48719977	         -3.29714162	         -6.91827491	        -19.65035072	          6.75917639	         26.65634678	         -2.85004323	          2.35328355	         -6.44010439	          0.06967893	          0.05562146	          0.01000086	          0.05032345	          0.10203515	          0.08784001	          0.02525913	          0.02764003	          0.01586533	          0.01000053	          0.07103314	          0.01000050	          0.01000030	          0.22788902	          0.10363821	          0.01000030	          0.01000050	          0.01902806	          0.09895490	          0.04633227	          0.03901521	          0.01590648	          0.04892169	          0.01000063	          0.01664934	          0.07489371	          0.14008310	          0.01000042	
          1.55024893	         -0.63622113	         -1.96262496	          5.17503159	          1.10558578	          0.84477139	         -0.00533488	         18.23247492	          2.23585112	         -2.55953825	        -13.32035678	          1.62757989	          0.52145729	        -11.61721946	         -3.38957997	         -8.05286272	        -22.59041938	          5.37302348	         26.81602124	         -2.61367427	          2.79956048	         -6.72116525	          0.06523548	          0.04488374	          0.01000092	          0.04915264	          0.08235351	          0.09552197	          0.02038362	          0.02625895	          0.01280257	          0.01000045	          0.07033870	          0.01000042	          0.01000027	          0.20445488	          0.09885431	          0.01000038	          0.01000059	          0.01535471	          0.12772939	          0.05290640	          0.03148361	          0.01283629	          0.03947738	          0.01000052	          0.01880938	          0.06043542	          0.11340374	          0.01000036	
          1.56460308	         -0.66763491	         -1.76543793	          4.53736794	          1.11769387	          0.84686371	         -0.00335452	         17.40299416	          2.33609866	         -2.25002829	        -13.28478851	          2.10106508	          0.68103572	        -10.54987258	         -3.49137543	         -9.22260517	        -25.80825361	          3.91845864	         26.38366127	         -2.41163695	          3.19024350	         -6.97448580	          0.06175718	          0.03621895	          0.01000095	          0.04731557	          0.06645657	          0.10187497	          0.01644929	          0.02453899	          0.01033112	          0.01000041	          0.07158286	          0.01000039	          0.01000028	          0.18865900	          0.09481810	          0.01000044	          0.01000072	          0.01239054	          0.16149090	          0.05692071	          0.02540607	          0.01359686	          0.03185631	          0.01000053	          0.01576496	          0.04876833	          0.09151111	          0.01000026	
          1.57895724	         -0.69217257	         -1.50021099	          3.88292610	          1.12951353	          0.84909002	         -0.00141233	         16.49158179	          2.35453545	         -1.87864018	        -13.07980272	          2.52834736	          0.85327657	         -9.26615810	         -3.60649947	        -10.39729748	        -29.32421228	          2.34492832	         25.41629083	         -2.25153756	          3.51459078	         -7.19377560	          0.05617163	          0.02922691	          0.01000088	          0.04635707	          0.05362761	          0.10540062	          0.01327454	          0.02399184	          0.01000028	          0.01000041	          0.07291425	          0.01000038	          0.01000031	          0.17752687	          0.09550517	          0.01000042	          0.01000085	          0.01000019	          0.19039353	          0.05573110	          0.02050210	          0.01594643	          0.02570652	          0.01000054	          0.01272173	          0.03935361	          0.07384482	          0.01000023	
